<?xml version="1.0" standalone="no"?>
<!DOCTYPE svg PUBLIC "-//W3C//DTD SVG 1.1//EN" "http://www.w3.org/Graphics/SVG/1.1/DTD/svg11.dtd" >
<svg xmlns="http://www.w3.org/2000/svg">
<metadata></metadata>
<defs>
<font id="bigmouthregular" horiz-adv-x="643" >
<font-face units-per-em="2048" ascent="1536" descent="-512" />
<missing-glyph horiz-adv-x="1024" />
<glyph horiz-adv-x="2048" />
<glyph horiz-adv-x="2048" />
<glyph unicode="&#xd;" horiz-adv-x="2048" />
<glyph unicode=" "  horiz-adv-x="1024" />
<glyph unicode="&#x09;" horiz-adv-x="1024" />
<glyph unicode="&#xa0;" horiz-adv-x="1024" />
<glyph unicode="!" horiz-adv-x="309" d="M39 1360v76q72 0 108 -41q18 -16 27.5 -39t9 -37t-1.5 -21v-49v-41v-913h-78v913v41v49q0 31 -10 43q-19 19 -55 19zM61 92q0 32 25 57t61 25q30 0 56 -26t26 -56q0 -39 -25.5 -64.5t-56.5 -25.5q-37 0 -61.5 24.5t-24.5 65.5z" />
<glyph unicode="+" horiz-adv-x="966" d="M55 473v90h342v350h90v-350h351v-90h-351v-348h-90v348h-342z" />
<glyph unicode="," horiz-adv-x="358" d="M66 -178q55 41 81.5 90.5t26.5 93.5q-24 3 -43.5 22t-19.5 42q0 27 19.5 45t43.5 18q28 0 48 -24.5t20 -65.5q0 -68 -41.5 -135.5t-120.5 -112.5z" />
<glyph unicode="-" d="M57 467v98h498v-98h-498z" />
<glyph unicode="." horiz-adv-x="256" d="M55 70q0 28 16.5 46.5t45.5 18.5q25 0 42 -18.5t17 -46.5q0 -26 -17 -44t-42 -18q-29 0 -45.5 17.5t-16.5 44.5z" />
<glyph unicode=":" horiz-adv-x="262" d="M55 248q0 28 16.5 46.5t45.5 18.5q25 0 42 -18.5t17 -46.5q0 -26 -17 -44t-42 -18q-29 0 -45.5 17.5t-16.5 44.5zM55 772q0 29 16.5 47.5t45.5 18.5q25 0 42 -19t17 -47q0 -26 -17 -43.5t-42 -17.5q-29 0 -45.5 17t-16.5 44z" />
<glyph unicode=";" horiz-adv-x="342" d="M33 90q107 86 114 174q-27 0 -45 18.5t-18 47.5q0 23 17.5 38t41.5 15q32 0 51 -21t19 -61q0 -62 -42.5 -124.5t-121.5 -108.5zM86 764q0 29 18 47t43 18q28 0 47 -18t19 -47q0 -27 -19.5 -48.5t-46.5 -21.5q-24 0 -42.5 21.5t-18.5 48.5z" />
<glyph unicode="?" horiz-adv-x="747" d="M20 1063q0 203 111 295q14 12 29 22.5t29.5 18t29.5 13t28 9t26.5 6t24 3t20.5 1t16 0.5t11 -1h5q67 0 120.5 -21.5t86.5 -54.5t55 -74.5t30.5 -79t8.5 -70.5q0 -67 -16.5 -127t-37.5 -97t-50 -69.5t-43.5 -44t-27.5 -20.5l-3 -2q-25 -19 -45.5 -39t-33.5 -38.5t-23 -36 t-14.5 -33.5t-7 -30t-2.5 -25.5t0.5 -19.5t1.5 -14l1 -6q8 -33 23.5 -53.5t26.5 -24.5l12 -4h32v-77h-32q-7 0 -15.5 1t-28.5 8.5t-36.5 21.5t-33 43.5t-24.5 70.5q-2 7 -5 18.5t-2.5 48t12.5 72.5t48 87t95 96q7 3 21 13t37 34.5t42.5 56t34 82t14.5 108.5q0 12 -2.5 30.5 t-15.5 54.5t-35 64.5t-67.5 50.5t-106.5 22q-11 1 -29 0t-62.5 -14t-76.5 -38q-78 -92 -78 -237h-78zM287 90q0 34 26.5 59t61.5 25t58.5 -25t23.5 -59q0 -39 -23 -63.5t-59 -24.5t-62 24.5t-26 63.5z" />
<glyph unicode="@" horiz-adv-x="1394" d="M110 514q1 19 3 48v5q9 106 43.5 194.5t81 144.5t104.5 99.5t109.5 66t100.5 36t72.5 17t30.5 3.5q278 23 445 -127q149 -145 149 -417q0 -197 -106 -303q-77 -64 -180 -64h-27q-47 0 -78 35q-35 31 -35 84h74q0 -24 10 -31q4 -5 11.5 -8t12.5 -3l5 -1h33q73 0 123 43 q79 79 79 256q0 70 -6 107q-24 157 -123 245q-122 127 -383 115q-1 -1 -23 -5.5t-52 -11.5t-71 -24t-81.5 -39.5t-82.5 -61t-75 -86t-57.5 -117t-32.5 -151.5v-3q-13 -161 49 -301q33 -75 86 -132q159 -172 488 -172v-74q-361 0 -545 199q-49 53 -82 120.5t-46.5 118 t-19 113.5t-4.5 82zM414 489q0 117 83 199t203 82h197v-461h-23q-50 -92 -167 -92h-7q-120 0 -203 78.5t-83 193.5zM494 489q0 -82 61 -142t145 -60q11 0 22.5 2t34.5 9t41 27.5t25 51.5v323h-123q-85 0 -145.5 -62.5t-60.5 -148.5z" />
<glyph unicode="A" horiz-adv-x="1499" d="M0 4v62h125v960v26t7 59.5t20.5 88.5t43.5 95.5t72 99.5q138 144 394 153v6h20h25v-6q257 -9 389 -153q43 -44 73 -99.5t43 -95t20 -89.5t7 -58.5v-26.5v-960h129v-62h-315v62h125v786q-5 -6 -17 -20t-18 -23q-39 -37 -90 -59t-79.5 -26.5t-49.5 -4.5h-734v-653h121v-62 h-311zM190 784h734q12 0 31 2t67 19t82 47q74 87 74 213q-4 60 -34.5 141.5t-90.5 145.5q-133 130 -371 139q-240 -9 -367 -139q-37 -38 -63.5 -85.5t-38 -88t-17.5 -76t-6 -56.5v-20v-242z" />
<glyph unicode="B" horiz-adv-x="1413" d="M-2 2v61h119v1412h-119v61h119h186h344q315 0 459 -170q37 -41 62 -91.5t35.5 -88.5t14.5 -82q4 -40 5 -56q0 -8 -2 -36v-2l-7 -38q-8 -39 -32 -98.5t-64 -107.5q40 -45 64 -105t32 -99l7 -40v-2q2 -25 2 -37q-1 -17 -5 -55q-4 -42 -14.5 -80.5t-35.5 -87.5t-62 -88 q-142 -170 -459 -170h-344h-186h-119zM178 63h125h344q287 0 414 148q34 37 56.5 81.5t30 82.5t10.5 71q2 20 2 35q0 10 -1 17l-2 18q0 10 -5 37t-26 80t-53 94l-12 -12h-633q-7 0 -16.5 0.5t-35.5 5t-50.5 12.5t-56 25t-56.5 41q-23 23 -35 39v-775zM178 1055 q0 -125 76 -211q32 -30 75.5 -47t70.5 -19l28 -2h610q47 44 77 104t36 98l6 38l1 6q0 7 0.5 16t0.5 23t-1 29.5t-4 34.5t-7 38t-12 40.5t-17.5 41.5t-24 41.5t-32.5 40.5q-135 148 -414 148h-344h-125v-420z" />
<glyph unicode="C" horiz-adv-x="1200" d="M0 768q0 156 59 298t159 244.5t237.5 163t287.5 60.5h265v-61h-265q-138 0 -264 -55.5t-218 -150t-146 -225t-54 -274.5q0 -190 91.5 -353t249 -258.5t341.5 -95.5h265v-61h-265q-150 0 -287.5 61.5t-237.5 164.5t-159 245t-59 297z" />
<glyph unicode="D" horiz-adv-x="1394" d="M2 1473v63h125h182h344q275 0 432 -160q41 -43 71 -96.5t43.5 -94t21 -86t8 -59.5t0.5 -26v-494v-12v-16q-5 -40 -10 -64.5t-19.5 -78t-43.5 -104.5t-71 -95q-152 -152 -432 -152h-340h-159h-148v63h121v1412h-125zM190 61h123h340q260 0 387 136q41 42 69 94t38.5 99.5 t14 75t3.5 48.5v500q0 8 -0.5 21t-6.5 52.5t-17.5 77t-37.5 86t-63 86.5q-139 136 -387 136h-344h-119v-1412z" />
<glyph unicode="E" horiz-adv-x="1300" d="M-8 1475v61h125h180h731h62v-61v-244h-62v244h-731h-119v-793q17 28 29 33q84 86 221 86h324v-58h-330q0 -1 -27.5 -4t-70 -18t-72.5 -45q-74 -71 -74 -209v-404h125h709v244h63v-305h-31h-32h-709h-158h-147v61h119v1412h-125z" />
<glyph unicode="F" horiz-adv-x="1280" d="M-2 2v59h121v1414h-121v61h121h184h733h64v-61v-242h-64v242h-733h-123v-793q21 21 35 33q80 84 213 84h324v-58h-324l-28 -3q-27 -3 -70 -18.5t-74 -45.5q-76 -76 -76 -209v-404h129v-59h-311z" />
<glyph unicode="G" horiz-adv-x="1267" d="M4 505.5v16.5v494v12v12q22 212 141 338q160 160 433 160h497v-63h-497q-253 0 -385 -138q-40 -42 -68 -94t-39.5 -98t-15.5 -75t-4 -48v-500v-24t6.5 -53t18 -78t38.5 -82.5t64 -83.5q135 -138 385 -138h466v404q0 124 -71 211q-33 30 -77.5 47t-72.5 19l-28 1h-310v54 h310q135 0 217 -84q70 -59 90 -193v-520h-524q-279 0 -433 154q-30 31 -54 68t-38.5 68.5t-24.5 69t-14.5 59.5t-7 51t-2.5 33.5z" />
<glyph unicode="H" horiz-adv-x="1456" d="M0 2v64h119v1411h-119v63h305v-63h-123v-674h594q11 -1 30 0t66 17.5t80 49.5q70 67 70 205v402h-119v63h305v-63h-125v-402v-1009h125v-64h-305v64h119v794q-3 -6 -29 -37q-39 -35 -90 -55.5t-78 -24.5t-49 -4h-594v-673h123v-64h-305z" />
<glyph unicode="I" horiz-adv-x="530" d="M4 1473v65h305v-65h-121v-1407h127v-64h-305v64h115v1407h-121z" />
<glyph unicode="J" horiz-adv-x="931" d="M0 -2v61q257 0 391 140q37 37 63.5 85t38 84.5t18 78.5t7 54t0.5 25v955h-121v61h310v-61h-127v-955q0 -17 -0.5 -29t-7.5 -60.5t-20 -89t-43.5 -95.5t-72.5 -98q-159 -156 -436 -156z" />
<glyph unicode="K" horiz-adv-x="1482" d="M2 -2v63h127v1414h-127v61h307v-61h-121v-455q86 -96 201 -96q45 0 87.5 18t62.5 36l20 19l477 478h-108v61h307v-61h-113l-518 -525q-1 0 -12 -9.5t-30.5 -22.5t-44 -26t-59 -22.5t-69.5 -9.5q-33 0 -96 19l821 -818h121v-63h-143h-7l-4 12l-893 885v-834h121v-63h-307z " />
<glyph unicode="L" horiz-adv-x="1216" d="M0 1475v63h307v-63h-121v-1405h772v243h64v-307h-29h-866v29v35v1405h-127z" />
<glyph unicode="M" horiz-adv-x="1695" d="M-2 -2v63h125v1418h-125v57h154h10h26q36 -2 79.5 -14t100 -40t112.5 -85.5t95 -136.5l173 -463l170 463q36 79 90.5 136.5t112 85.5t101.5 40t81 14h24h12h146v-57h-119v-1418h119v-63h-309v63h127v1418q-33 -4 -67 -14t-85 -34t-98.5 -73.5t-79.5 -118.5l-185 -508h-88 v6l-182 502q-26 55 -63 98t-72.5 67.5t-76 42t-67 23.5t-51.5 9v-1418h119v-63h-309z" />
<glyph unicode="N" horiz-adv-x="1433" d="M-2 1475v61h532q273 0 431 -158q41 -43 70.5 -97.5t42.5 -94t20 -87.5t7.5 -60t0.5 -29v-947h-62v953q0 4 2 20.5t-5.5 53.5t-19 76t-38.5 87t-64 86q-130 136 -385 136h-346v-1412h125v-61h-305v61h119v1412h-125zM922 2v61h305v-61h-305z" />
<glyph unicode="O" horiz-adv-x="1634" d="M6 766q0 159 60.5 304.5t162.5 251.5t245 169t300 63q154 0 294.5 -63t242 -168.5t161.5 -251.5t60 -305q0 -161 -60 -307t-161.5 -251.5t-242 -168t-294.5 -62.5q-158 0 -300.5 62.5t-244.5 168t-162.5 251.5t-60.5 307zM72 766q0 -199 93 -365.5t254.5 -263 t354.5 -96.5q190 0 352 96.5t257.5 263.5t95.5 365q0 146 -56.5 280.5t-151 232.5t-225 156t-272.5 58q-144 0 -275 -58t-224 -156t-148 -232t-55 -281z" />
<glyph unicode="P" horiz-adv-x="1212" d="M0 -2v61h119v1416h-119v61h119h188h340v-6q166 -9 278.5 -126t112.5 -282q0 -168 -119 -288.5t-288 -120.5h-451v-654h127v-61h-307zM180 776h451q144 0 245 102t101 244q0 145 -100.5 245.5t-245.5 100.5v7h-324h-127v-699z" />
<glyph unicode="Q" horiz-adv-x="1705" d="M-2 766q0 157 60 301t161 248.5t241.5 166.5t295.5 62q152 0 290 -62t238 -166.5t159.5 -248.5t59.5 -301q0 -166 -62 -312.5t-173 -252.5l170 -162l-45 -45l-170 168q-208 -174 -467 -174q-155 0 -295.5 61.5t-241.5 165.5t-161 248.5t-60 302.5zM59 766 q0 -196 92.5 -360.5t253 -260.5t351.5 -96q242 0 430 158l-252 246q0 4 -20 19.5t-56.5 31.5t-71.5 16q-59 0 -116 -57l-45 47q78 72 161 72q49 0 96 -20.5t69 -39.5t26 -26l252 -250q103 97 161 231.5t58 288.5q0 144 -55.5 276.5t-148 229t-221 154t-267.5 57.5 q-191 0 -351.5 -97t-253 -262t-92.5 -358z" />
<glyph unicode="R" horiz-adv-x="1298" d="M2 0v63h125v1410h-125v61h125h182h346q106 -3 195 -59t140.5 -149t51.5 -202q0 -166 -120 -287.5t-285 -121.5h-49l254 -537q0 -6 12 -28t40 -50t60 -37q24 -9 50 -9q39 0 83 20l27 -51q-53 -33 -113 -33q-23 0 -63 10q-34 15 -64.5 41.5t-46.5 48.5t-29 42l-12 20 l-268 563h-334v-652h125v-63h-307zM184 780h453q142 0 244 102t102 242q0 146 -101.5 247.5t-244.5 101.5h-328h-125v-693z" />
<glyph unicode="S" horiz-adv-x="1101" d="M0 428v61h59v-61q0 -10 0.5 -19.5t6 -41.5t15 -59.5t32 -66t53 -69.5t81 -61.5t113.5 -49.5q60 -19 118 -22q14 -1 27 -1q41 0 73 8q42 10 80.5 28t63 37.5t44 40.5t27.5 32t10 15q77 127 77 230q0 49 -18 93q-12 36 -35 68t-47.5 52.5t-48 36t-38 22t-17.5 6.5l-293 114 q-63 25 -113 58.5t-80 63t-51.5 67t-31 60t-14.5 53t-5 36v17.5v17q0 59 18 111q20 60 51 96t65.5 62t56.5 36.5t26 10.5q75 28 146 34q28 2 54 2q38 0 68 -5q51 -9 100 -33.5t77 -45.5t57 -53t35 -41t15 -23l1 -1l-55 -28q-2 5 -10.5 18.5t-28.5 35.5t-47 44t-68 40.5 t-87 28.5q-28 6 -63 5q-22 0 -46 -2q-63 -6 -131 -31l-12 -6q-11 -6 -26.5 -16t-35 -25t-37 -37.5t-32.5 -49.5q-15 -26 -23 -64q-6 -30 -6 -63v-17q0 -139 135 -234q51 -36 121 -63l292 -119l11 -4q11 -5 26 -13t35 -20t41 -29.5t41.5 -38.5t39 -49.5t30.5 -60.5 q17 -50 17 -105q0 -124 -85 -272q-5 -8 -14 -20.5t-42 -45t-70.5 -57t-99 -45t-128.5 -20.5q-87 0 -156 20q-80 26 -143 68t-100.5 87.5t-62 97t-32.5 94.5q-6 34 -6 66v15z" />
<glyph unicode="T" horiz-adv-x="1468" d="M4 1221v252v55v6h596h41h596v-6v-55v-252h-61v252h-531v-1412h131v-61h-313v61h121v1412h-518v-252h-62z" />
<glyph unicode="U" horiz-adv-x="1429" d="M0 1475v61h307v-61h-125v-977q0 -177 129 -304.5t305 -127.5q181 0 308 126.5t127 305.5v977h-119v61h309v-61h-125v-977q0 -205 -146.5 -350.5t-353.5 -145.5q-133 0 -246 66.5t-179 180.5t-66 249v977h-125z" />
<glyph unicode="V" horiz-adv-x="1474" d="M2 1475v61h307v-61h-119l246 -1201q6 -28 17 -61.5t30 -72t49 -64t64 -25.5h45q32 0 60.5 22.5t46 54t30 65.5t18 55.5t5.5 25.5l246 1201h-121v61h309v-61h-127l-244 -1219q0 -6 -6.5 -31.5t-24 -66t-41.5 -77.5t-64 -64t-87 -27h-45q-47 0 -86 26t-63 65.5t-40 76 t-25 67.5l-9 31l-250 1219h-121z" />
<glyph unicode="W" horiz-adv-x="2097" d="M-4 1475v61h307v-61h-121l244 -1188q5 -30 17 -65t31 -73t48.5 -63t63.5 -25h43q37 0 66.5 22t46 53.5t28 63.5t14.5 54l4 22l125 1090v23h64v-17l125 -1096q1 -9 4 -23.5t15.5 -51.5t29 -65.5t48 -51.5t69.5 -23h39q31 0 58.5 22t45.5 55t30.5 64.5t20 57.5t8.5 27 l242 1188h-125v61h307v-61h-118l-248 -1211q0 -4 -7 -29t-24 -65.5t-41 -78t-63.5 -64.5t-85.5 -27h-39q-46 0 -84 19.5t-61 48.5t-41 64t-26 64t-13.5 51.5t-6.5 24.5l-88 840l-94 -840q0 -8 -5 -33.5t-20.5 -67.5t-38.5 -79t-65.5 -64.5t-95.5 -27.5h-43q-33 0 -63.5 14.5 t-51.5 37.5t-39 50.5t-30 56t-20 51.5t-12 38l-5 16l-248 1211h-121z" />
<glyph unicode="X" horiz-adv-x="1447" d="M-14 1534q46 27 90 27q29 0 57 -11q18 -6 33.5 -16.5t26 -20t20 -21.5t14.5 -19.5t9 -14.5l4 -8l102 -166l276 -461l406 647h-102v64h305v-64h-133l-443 -704l398 -649l7 -11q6 -10 13.5 -21.5t22 -23.5t30.5 -18q13 -5 28 -5q30 0 67 21l28 -55q-56 -29 -96 -29 q-7 0 -51 11q-33 13 -58.5 38t-35 42.5t-9.5 21.5l-106 164l-271 459l-401 -645h102v-62h-311v62h135l441 700l-402 655q0 5 -6.5 18t-24.5 30.5t-42 25.5q-14 5 -28 5q-31 0 -67 -23z" />
<glyph unicode="Y" horiz-adv-x="1464" d="M-14 1501q48 27 93 27q28 0 54 -10q30 -12 56 -38t37 -46l10 -19l106 -170l272 -450l406 680h-102v61h307v-61h-135l-443 -748v-664h121v-61h-307v61h125l4 652l-406 674q-1 1 -7.5 11t-14.5 20t-22.5 21t-30.5 15q-14 5 -30 5q-30 0 -65 -17z" />
<glyph unicode="Z" horiz-adv-x="1544" d="M-2 0l1192 1477h-158h-909v-246h-57v246v63h57h909h289l-1192 -1474h850q11 -1 30 -0.5t65 16.5t77 49q76 70 76 207h57q0 -163 -86 -252q-40 -36 -91.5 -57t-79 -25t-48.5 -4h-4h-977z" />
<glyph unicode="a" horiz-adv-x="1236" d="M0 510q0 139 68.5 257.5t187.5 188.5t260 70h344v-823q0 -72 33 -105q16 -15 38 -23t36 -9h14h55v-64h-55q-76 0 -129 49q-37 40 -45 88q-32 -48 -76 -79.5t-88.5 -44t-70.5 -16t-50 -3.5h-6q-141 0 -260 68.5t-187.5 187t-68.5 258.5zM66 510q0 -124 60 -229.5 t163.5 -167.5t226.5 -62h1q13 0 26 1t44 6t58.5 19.5t58.5 37.5t55.5 64t37.5 95v689h-281q-123 0 -226.5 -61.5t-163.5 -166t-60 -225.5z" />
<glyph unicode="b" horiz-adv-x="1120" d="M-39 8v64h57h3q49 0 83 32q35 35 35 103v41v782v412v69v56q0 53 -35 86q-33 33 -102 33v63q102 0 148 -57q24 -22 37 -53t15 -51l1 -21v-56v-69v-412h280q140 0 258 -70t186 -188t68 -256q0 -141 -68 -259.5t-186 -186.5t-258 -68h-6q-25 0 -51.5 3.5t-71 15.5 t-88.5 43.5t-76 78.5q-5 -42 -47 -84q-49 -51 -125 -51h-57zM203 283q39 -167 186 -211q42 -13 94 -13q92 0 175.5 36.5t143 98t95 146t35.5 176.5q0 121 -59.5 225t-163 165t-226.5 61h-280v-684z" />
<glyph unicode="c" horiz-adv-x="970" d="M-2 512q0 144 67 264.5t181 190t248 69.5q212 0 366 -168l-43 -37q-140 146 -323 146q-181 0 -310 -136.5t-129 -328.5q0 -126 59 -232.5t160 -168.5t220 -62q175 0 323 148l43 -39q-154 -168 -366 -168q-204 0 -350 153t-146 369z" />
<glyph unicode="d" horiz-adv-x="1116" d="M2 512q0 138 70 257.5t189 190t257 70.5h283v459q0 98 -51 149q-24 24 -55.5 37.5t-51.5 14.5l-20 2h-78v57h78q102 0 172 -63q61 -61 67 -175v-481v-827q0 -71 43 -105q15 -16 35 -24.5t32 -9.5l13 -1h64v-61h-58h-6q-76 0 -127 51q-40 40 -45 84q-33 -47 -77 -78.5 t-89 -43.5t-72 -15.5t-53 -3.5h-4q-139 0 -257.5 68.5t-188.5 187.5t-70 260zM63 512q0 -188 135 -323.5t320 -135.5h2h21.5t37 4t48.5 11.5t51 24t51 39.5t42 60t30 84v691h-283q-184 0 -319.5 -135.5t-135.5 -319.5z" />
<glyph unicode="e" horiz-adv-x="1136" d="M-2 516q0 145 68 268t184 194t252 71q137 0 253 -71t183.5 -194t67.5 -268h-62h-883q0 -194 129.5 -330.5t311.5 -136.5q159 0 282 105l41 -48q-65 -58 -149.5 -89t-173.5 -31q-136 0 -252 70.5t-184 192.5t-68 267zM68 580h870q-20 175 -143 290t-293 115 q-169 0 -292 -115.5t-142 -289.5z" />
<glyph unicode="f" horiz-adv-x="749" d="M-6 -2v63h125v1432h-4q0 7 2 19t2 16v14q11 94 69 152q61 61 170 61q5 1 13 1q3 1 7 1q9 0 25 -1q24 -1 47.5 -5.5t53.5 -17.5t55 -33q78 -88 78 -223h-57q0 120 -70 176q-26 23 -64 34.5t-63 12.5h-25q-1 -1 -24 -3.5t-53.5 -15t-53.5 -36.5q-41 -41 -53 -117v-629 q6 9 12.5 16t13.5 14.5t11 12.5q25 24 57 41.5t56.5 26t50.5 13t35.5 5t15.5 0.5h84v-61h-84q-11 0 -30 -2t-65 -19.5t-79 -48.5q-78 -72 -78 -211v-625h127v-63h-127v-6h-55v6h-125z" />
<glyph unicode="g" horiz-adv-x="1171" d="M-2 -201h188v-24q0 -229 115 -332q31 -27 68 -46.5t68.5 -27t59 -11.5t43.5 -4l15 1q161 0 246 94q27 31 46.5 71.5t27 76.5t11.5 67t4 50l-1 18v344q-135 -117 -318 -117q-137 0 -253.5 72t-184 196t-67.5 269q0 146 67.5 269t184 194t253.5 71q189 0 328 -127 q10 37 41 66q43 57 143 57v-61q-59 0 -100 -33q-14 -16 -21.5 -37t-8.5 -34l-1 -13v-78v-57v-4v-47v-924q0 -77 -9 -126q-25 -123 -99 -202q-93 -110 -289 -110q0 -7 -16 -7q-34 0 -72 5.5t-100 31.5t-109 70q-124 118 -133 338h-127v61zM125 496q0 -195 131 -335.5 t315 -140.5q91 0 173.5 38t144.5 106v661q-123 144 -318 144q-185 0 -315.5 -138t-130.5 -335z" />
<glyph unicode="h" horiz-adv-x="1142" d="M-10 1694v63q100 0 147 -59q24 -22 37 -53t14 -51l2 -21v-78v-47v-543q8 24 27 39q26 25 58 43t56.5 26t51 13t36 5.5t15.5 0.5h86q135 0 211 -88q98 -107 98 -330v-415q0 -70 35 -111q15 -12 36 -19t34 -7l14 -1h58v-63h-58q-80 0 -125 51q-57 48 -57 150v422 q0 7 0.5 20t-2.5 49.5t-10 70t-24.5 73.5t-43.5 67q-65 68 -166 68h-86q-11 0 -30 -2t-65.5 -19t-80.5 -47q-68 -68 -68 -213v-627h119v-63h-119h-63h-125v63h125v1387v47v78q0 53 -35 88q-38 33 -102 33z" />
<glyph unicode="i" horiz-adv-x="421" d="M-14 973v61q99 0 151 -55q23 -23 34 -54t11 -51v-20v-795h125v-61h-305v61h119v795q1 8 1 16q0 42 -28 70q-36 33 -108 33zM57 1393q0 32 23 57t51 25q33 0 55.5 -24.5t22.5 -57.5q0 -39 -22 -62.5t-56 -23.5q-29 0 -51.5 24t-22.5 62z" />
<glyph unicode="j" horiz-adv-x="563" d="M-2 -647q166 0 250 96q44 50 65 122t20 119l-1 46v1083h6v33q0 49 -33 86q-44 35 -104 35v59q92 0 147 -55q24 -24 35.5 -55t11.5 -50v-20v-55v-1055v-2q-1 -10 1 -31.5t-3.5 -59.5t-14.5 -77t-32 -84t-55 -80q-104 -113 -293 -113v58zM264 1389q0 34 22.5 60t51.5 26 q33 0 56.5 -26t23.5 -60q0 -36 -23 -59t-57 -23q-30 0 -52 23t-22 59z" />
<glyph unicode="k" horiz-adv-x="1179" d="M-6 1681v64q85 0 147 -59q23 -22 33.5 -52.5t9.5 -50.5v-20v-80v-45v-893l443 436h-109v61h307v-61h-112l-244 -246l311 -596q26 -54 80 -76q22 -7 41.5 -6t32.5 6l14 5l51 30l29 -57l-49 -23q-39 -22 -86 -22q-24 0 -51 12q-69 15 -113 101l-305 583l-240 -239v-390h127 v-63h-127h-55h-123v63h123v1375v45v80q0 51 -33 86q-37 32 -102 32z" />
<glyph unicode="l" horiz-adv-x="421" d="M-10 1688v65q96 0 147 -57q23 -22 35.5 -53t13.5 -51l2 -21v-82v-62v-1366h119v-63h-307v63h125v1366v62v82q0 51 -33 86q-36 31 -102 31z" />
<glyph unicode="m" horiz-adv-x="1705" d="M-14 975v59q91 0 143 -49q14 -14 23 -30.5t12.5 -27t7 -26t4.5 -18.5v-6q3 4 19 28.5t30 36.5q93 83 232 92h14h10q137 -8 236 -92q57 -71 74 -127q28 78 77 127q93 83 232 92h12h10q140 -9 236 -92q31 -32 52.5 -73t31 -71.5t15 -67.5t5.5 -45.5v-20.5v-611h117v-53 h-180v20v33v611q0 16 -1.5 42t-23 88t-61.5 103q-75 78 -201 78q-123 0 -201 -78q-39 -39 -62.5 -96.5t-27.5 -87.5t-4 -49v-611h115v-53h-176v20v33v611q0 23 -2.5 50t-23 85.5t-58.5 97.5q-78 78 -201 78q-122 0 -203 -78q-38 -39 -61 -97.5t-27 -88.5t-4 -47v-611h119 v-53h-293v53h115v611v61v135q0 47 -27 82q-50 33 -104 33z" />
<glyph unicode="n" horiz-adv-x="1091" d="M-20 995v62q93 0 147 -51q25 -26 36 -58t11 -53q19 31 49 66q93 87 242 96h12h10q148 -9 238 -96q106 -110 106 -283v-623h123v-57h-301v57h117v623v16.5t-4.5 40t-12.5 57.5t-26.5 62.5t-44.5 60.5q-80 80 -205 80q-129 0 -209 -80q-42 -41 -65.5 -100t-26.5 -98l-2 -39 v-623h123v-57h-301v57h119v594v29v201v10q0 41 -29 72q-34 34 -106 34z" />
<glyph unicode="o" horiz-adv-x="1126" d="M2 506q0 145 68.5 268.5t185.5 195.5t254 72t254 -72t185.5 -195.5t68.5 -268.5q0 -146 -68.5 -270t-185.5 -195.5t-254 -71.5t-254 71.5t-185.5 195.5t-68.5 270zM66 506q0 -196 130.5 -334.5t313.5 -138.5q120 0 223 63t163 172t60 238q0 97 -35.5 185t-95.5 151.5 t-142.5 101t-172.5 37.5q-183 0 -313.5 -139t-130.5 -336z" />
<glyph unicode="p" horiz-adv-x="1136" d="M-14 981v61q94 0 145 -51q30 -41 43 -78q138 129 324 129q137 0 253.5 -71.5t184.5 -194.5t68 -268t-68 -268.5t-184.5 -195t-253.5 -71.5q-176 0 -318 123v-745h123v-56h-301v56h117v807v567v127v12q0 49 -33 84q-38 33 -100 33zM180 180q130 -145 318 -145 q183 0 313.5 138.5t130.5 334.5t-130.5 334.5t-313.5 138.5q-185 0 -318 -139v-117v-545z" />
<glyph unicode="q" horiz-adv-x="1171" d="M4 514q0 146 68.5 270t185.5 195.5t254 71.5q188 0 326 -123q6 24 45 73q50 50 145 50v-62q-73 0 -106 -33q-29 -33 -29 -84v-10v-1511h135v-56h-197v29v776q-142 -123 -319 -123q-137 0 -254 72t-185.5 196t-68.5 269zM66 514q0 -97 35.5 -184.5t95 -151.5t142 -101.5 t173.5 -37.5q90 0 173 37.5t146 107.5v549v117q-63 67 -146 103t-173 36q-121 0 -223.5 -63t-162.5 -172.5t-60 -239.5z" />
<glyph unicode="r" horiz-adv-x="745" d="M2 979v57q97 0 141 -47q40 -42 52 -110q14 32 49 67q90 90 256 90h114v-57h-114q-141 0 -219 -78q-38 -41 -59.5 -99.5t-23.5 -97.5l-3 -38v-613h120v-55h-303v55h121v574v39v198q0 47 -33 82q-33 33 -98 33z" />
<glyph unicode="s" horiz-adv-x="763" d="M-2 287v43h51v-43q0 -9 1 -22t12 -46.5t29.5 -62t59.5 -60t97 -49.5q40 -11 78 -13q8 0 16 -1q28 1 50 5q28 6 53.5 18.5t40.5 24t29.5 26.5t18.5 20t7 10q48 80 48 148q0 32 -11 61q-12 37 -41 66t-53 39l-23 10l-201 82q-49 19 -86.5 44.5t-58.5 52.5t-34.5 50 t-17.5 47.5t-5 34.5t-1 21v2v16q0 77 45 131q50 60 105 80q74 25 133 24h6q62 -2 108 -23.5t76 -46.5t45 -46l15 -21l-49 -30q-2 4 -7.5 12t-19.5 23t-31.5 29t-44.5 26.5t-57 18.5q-17 3 -38 3q-16 1 -33 -1q-41 -4 -85 -21q0 -1 -13 -8t-29 -20.5t-32 -32.5 q-17 -20 -27 -52q-10 -29 -9 -63v-7q0 -7 0.5 -15t9 -33.5t24 -47t49.5 -48.5t81 -46l196 -74q1 -1 22.5 -12t45 -25.5t50.5 -46t40 -69.5q15 -37 15 -79q0 -81 -58 -179q0 -3 -10 -16.5t-32 -33.5t-50 -38.5t-71 -32t-89 -13.5q-35 0 -105 17q-68 21 -118 58.5t-74.5 80.5 t-34.5 82q-8 32 -8 61v11z" />
<glyph unicode="t" horiz-adv-x="774" d="M0 1311v57q94 0 139 -53q21 -21 31 -50t10 -48v-19v-53h6v-117h234v-57h-234v-760q9 -75 50 -113q22 -21 51 -32.5t47 -13.5l18 -1l4 -1h10.5h13.5t17 1.5t19 3t20.5 5t21.5 8t22 11t20 15.5q59 56 59 164h57q0 -136 -77 -207q-63 -57 -166 -57h-27q-9 0 -25 1.5 t-56.5 17.5t-71.5 44q-46 46 -66 133v17v31v827v133q0 47 -29 82q-40 31 -98 31z" />
<glyph unicode="u" horiz-adv-x="1087" d="M2 973v59h174v-22v-37v-606q0 -17 2.5 -44t26 -91t65.5 -105q69 -69 197 -78q131 0 207 82q42 39 65.5 98t26.5 99l2 39v606h-121v59h176v-22v-37v-590v-16v-7v-196q0 -49 31 -82q29 -33 98 -33v-59q-85 0 -143 55q-41 49 -41 107q-11 -12 -29 -36.5t-22 -29.5 q-90 -90 -236 -96h-14h-4q-146 6 -236 96q-104 104 -104 281v606h-121z" />
<glyph unicode="v" horiz-adv-x="1087" d="M-6 1030q31 8 60 9q44 0 85 -19q26 -17 46.5 -45t28 -46.5t7.5 -23.5l260 -858l267 864q2 8 6 20.5t25 42t50 46.5q37 19 79 19q30 0 63 -9l-17 -53q-25 6 -46 6q-30 0 -52 -12q-16 -12 -29.5 -31t-18.5 -32l-5 -13l-273 -891v-6h-98v6l-272 891q0 2 -1 6t-5 15t-9 20 t-15 19t-21 16q-20 13 -48 13q-21 0 -47 -7z" />
<glyph unicode="w" horiz-adv-x="1558" d="M-2 1038q32 9 62 10q43 0 81 -20q28 -17 48.5 -46t27 -47t6.5 -24l269 -864l202 664h56l200 -664l264 871q2 8 7.5 21t27 42.5t49.5 46.5q39 19 83 19q30 0 63 -9l-25 -53q-25 7 -45 7q-28 0 -45 -15q-19 -12 -33.5 -31t-19.5 -32l-4 -13l-271 -897h-100l-182 596 l-184 -596v-6h-95v6l-272 897q-2 0 -7.5 14t-18 33t-29.5 29q-22 15 -53 15q-21 0 -46 -7z" />
<glyph unicode="x" horiz-adv-x="956" d="M8 23l25 45q36 -18 59 -5q11 2 21.5 11t14.5 18l5 8l252 424l-252 418q0 7 -12.5 23.5t-28.5 23.5q-27 6 -59 -10l-25 51q37 15 69 15q19 0 36 -5q20 -9 36 -25.5t25 -30.5t10 -15l66 -105l170 -284l239 393q2 5 7 13.5t23.5 26.5t41.5 27q16 5 34 5q32 0 71 -15l-27 -51 q-32 16 -57 10q-12 -4 -22 -14.5t-14 -18.5l-5 -8l-258 -424l258 -418q0 -9 10.5 -24.5t30.5 -18.5q21 -13 57 5l27 -45q-35 -21 -68 -21q-5 0 -18.5 2t-18.5 2q-23 9 -41 26.5t-24.5 29.5t-6.5 16l-67 110l-172 285l-242 -399q-20 -48 -65 -68q-8 0 -22 -2t-21 -2 q-36 0 -62 21z" />
<glyph unicode="y" horiz-adv-x="1036" d="M0 971v57h182l324 -954l246 841q3 9 8 22.5t26.5 42.5t47.5 44q35 21 79 21q33 0 70 -11l-22 -53q-27 7 -48 7q-28 0 -47 -13q-19 -10 -32.5 -29t-17.5 -33l-3 -14l-170 -573l-88 -291l-16 -53l-172 -555q-1 -3 -2.5 -8.5t-7.5 -21t-14.5 -28.5t-24 -28.5t-33.5 -24.5 q-33 -23 -76 -23q-41 0 -66 11l17 55q26 -7 47 -7q30 0 51 13q16 10 29.5 29.5t18.5 33.5l5 15l162 539l-336 989h-137z" />
<glyph unicode="z" horiz-adv-x="1036" d="M14 0l774 969h-702v-135h-59v135v59h882l-772 -969h625q49 0 82 33q35 35 35 98h57q0 -97 -55 -141q-43 -49 -119 -49h-748z" />
<glyph unicode="&#xad;" d="M57 467v98h498v-98h-498z" />
<glyph unicode="&#xff;" horiz-adv-x="1705" />
<glyph unicode="&#x2000;" horiz-adv-x="878" />
<glyph unicode="&#x2001;" horiz-adv-x="1757" />
<glyph unicode="&#x2002;" horiz-adv-x="878" />
<glyph unicode="&#x2003;" horiz-adv-x="1757" />
<glyph unicode="&#x2004;" horiz-adv-x="585" />
<glyph unicode="&#x2005;" horiz-adv-x="439" />
<glyph unicode="&#x2006;" horiz-adv-x="292" />
<glyph unicode="&#x2007;" horiz-adv-x="292" />
<glyph unicode="&#x2008;" horiz-adv-x="219" />
<glyph unicode="&#x2009;" horiz-adv-x="351" />
<glyph unicode="&#x200a;" horiz-adv-x="97" />
<glyph unicode="&#x2010;" d="M57 467v98h498v-98h-498z" />
<glyph unicode="&#x2011;" d="M57 467v98h498v-98h-498z" />
<glyph unicode="&#x2012;" d="M57 467v98h498v-98h-498z" />
<glyph unicode="&#x2013;" horiz-adv-x="1169" d="M57 467v98h1024v-98h-1024z" />
<glyph unicode="&#x2014;" horiz-adv-x="2193" d="M57 467v98h2048v-98h-2048z" />
<glyph unicode="&#x201a;" horiz-adv-x="393" d="M66 -178q55 41 81.5 90.5t26.5 93.5q-24 3 -43.5 22t-19.5 42q0 27 19.5 45t43.5 18q28 0 48 -24.5t20 -65.5q0 -68 -41.5 -135.5t-120.5 -112.5z" />
<glyph unicode="&#x201c;" horiz-adv-x="540" d="M14 1452q0 41 18.5 66.5t49.5 25.5q25 0 44 -19t19 -44q0 -24 -19 -42.5t-44 -21.5q0 -44 28 -94t83 -92l-19 -29q-76 46 -118 114.5t-42 135.5zM242 1452q0 40 20 66t47 26t45.5 -19t18.5 -44t-18 -43t-46 -21q0 -44 29.5 -94t85.5 -92l-18 -29q-76 46 -120 115t-44 135 z" />
<glyph unicode="&#x201d;" horiz-adv-x="532" d="M14 1231q56 42 85.5 92t29.5 94q-28 3 -45.5 21t-17.5 43t18 44t45 19t47.5 -26t20.5 -66q0 -66 -44 -135t-120 -115zM246 1231q55 42 82.5 91.5t27.5 94.5q-25 3 -44 21.5t-19 42.5q0 25 19 44t44 19q31 0 49.5 -25.5t18.5 -66.5q0 -67 -42 -135.5t-118 -114.5z" />
<glyph unicode="&#x201e;" horiz-adv-x="632" d="M66 -178q55 41 81.5 90.5t26.5 93.5q-24 3 -43.5 22t-19.5 42q0 27 19.5 45t43.5 18q28 0 48 -24.5t20 -65.5q0 -68 -41.5 -135.5t-120.5 -112.5zM279 -178q55 41 81.5 90.5t26.5 93.5q-24 3 -43.5 22t-19.5 42q0 27 19.5 45t43.5 18q28 0 48 -24.5t20 -65.5 q0 -68 -41.5 -135.5t-120.5 -112.5z" />
<glyph unicode="&#x202f;" horiz-adv-x="351" />
<glyph unicode="&#x205f;" horiz-adv-x="439" />
<glyph unicode="&#xe000;" horiz-adv-x="1044" d="M0 0v1044h1044v-1044h-1044z" />
</font>
</defs>
</svg>
